<svg width="2560" height="285" viewBox="0 0 2560 285" fill="none" xmlns="http://www.w3.org/2000/svg">
<g clip-path="url(#clip0_8_299)">
<path d="M78.365 2097.97L78.365 2051.97L67.3987 2051.97L67.3987 1981.97L37.7439 1981.97L37.7439 2051.97L58.5555 2051.97L58.5555 2097.97L78.365 2097.97ZM117.987 2097.97L117.987 2051.97L126.709 2051.97L126.709 1981.97L128.684 1981.97L128.684 1876.97L174.157 1876.97L174.157 1981.97L156.361 1981.97L156.361 2051.97L138.796 2051.97L138.796 2097.97L158.608 2097.97L158.608 2051.97L178.418 2051.97L178.417 2097.97L198.229 2097.97L198.229 2051.97L186.016 2051.97L186.016 1981.97L215.671 1981.97L215.671 2051.97L219.039 2051.97L219.039 2097.97L238.85 2097.97L238.85 2051.97L245.328 2051.97L245.328 1981.97L219.625 1981.97L219.625 1876.97L189.311 1876.97L189.311 1720.92L214.575 1720.92L214.575 1484.66L113.528 1484.66L113.527 1720.92L113.527 1876.97L83.2121 1876.97L83.2121 1981.97L97.0535 1981.97L97.0535 2051.97L98.1746 2051.97L98.1746 2097.97L117.987 2097.97ZM278.472 2097.97L278.472 2051.97L299.283 2051.97L299.283 2097.97L319.093 2097.97L319.093 2051.97L304.638 2051.97L304.638 1981.97L310.567 1981.97L310.567 1876.97L340.881 1876.97L340.881 1720.92L416.669 1720.92L416.669 1484.66L416.669 1130.28L492.453 1130.28L492.453 598.694L480.574 598.694L480.574 512.057L628.183 512.057L628.183 425.416L628.202 425.416L628.202 295.459L849.611 295.459L849.611 165.498L683.573 165.498L683.573 -29.44L517.512 -29.4401L517.512 -203.999L185.39 -203.999L185.39 -29.4401L351.451 -29.4401L351.451 165.498L185.385 165.498L185.385 295.459L406.792 295.459L406.792 165.498L628.202 165.498L628.202 295.459L406.792 295.459L406.792 425.416L480.574 425.416L480.574 512.057L332.963 512.057L332.963 598.694L265.097 598.694L265.097 1130.28L265.097 1484.66L315.621 1484.66L315.621 1720.92L265.097 1720.92L265.097 1876.97L265.097 1981.97L274.983 1981.97L274.983 2051.97L258.66 2051.97L258.66 2097.97L278.472 2097.97ZM358.715 2097.97L358.715 2051.97L363.947 2051.97L363.947 1981.97L393.602 1981.97L393.602 2051.97L379.526 2051.97L379.526 2097.97L399.336 2097.97L399.336 2051.97L419.145 2051.97L419.145 2097.97L438.957 2097.97L438.957 2051.97L423.257 2051.97L423.257 1981.97L401.51 1981.97L401.51 1876.97L356.04 1876.97L356.04 1981.97L334.292 1981.97L334.292 2051.97L338.903 2051.97L338.903 2097.97L358.715 2097.97ZM479.578 2097.97L479.578 2051.97L482.567 2051.97L482.567 1981.97L492.452 1981.97L492.452 1876.97L492.452 1720.92L416.669 1720.92L416.669 1876.97L446.98 1876.97L446.98 1981.97L452.912 1981.97L452.912 2051.97L459.769 2051.97L459.769 2097.97L479.578 2097.97ZM519.2 2097.97L519.2 2051.97L540.011 2051.97L540.011 2097.97L559.821 2097.97L559.821 2051.97L541.879 2051.97L541.879 1981.97L571.533 1981.97L571.533 2051.97L579.631 2051.97L579.631 2097.97L599.443 2097.97L599.443 2051.97L601.188 2051.97L601.188 1981.97L583.393 1981.97L583.393 1876.97L628.865 1876.97L628.865 1981.97L630.841 1981.97L630.841 2051.97L620.254 2051.97L620.254 2097.97L640.064 2097.97L640.064 2051.97L659.873 2051.97L659.873 2097.97L679.685 2097.97L679.685 2051.97L660.496 2051.97L660.496 1981.97L674.338 1981.97L674.338 1876.97L644.022 1876.97L644.022 1720.92L618.76 1720.92L618.76 1484.66L719.806 1484.66L719.806 1130.28L568.236 1130.28L568.236 1484.66L517.712 1484.66L517.712 1720.92L568.236 1720.92L568.236 1876.97L537.925 1876.97L537.925 1981.97L512.222 1981.97L512.222 2051.97L499.388 2051.97L499.388 2097.97L519.2 2097.97ZM720.307 2097.97L720.307 2051.97L719.806 2051.97L719.806 1981.97L749.46 1981.97L749.46 2051.97L740.116 2051.97L740.116 2097.97L759.928 2097.97L759.928 2051.97L779.115 2051.97L779.115 1981.97L765.278 1981.97L765.278 1876.97L795.591 1876.97L795.591 1720.92L820.853 1720.92L820.853 1484.66L719.806 1484.66L719.806 1720.92L719.806 1876.97L719.806 1981.97L690.151 1981.97L690.151 2051.97L700.497 2051.97L700.497 2097.97L720.307 2097.97ZM800.549 2051.97L780.739 2051.97L780.739 2097.97L800.549 2097.97L800.549 2051.97ZM840.171 2097.97L840.171 2051.97L838.427 2051.97L838.427 1981.97L856.218 1981.97L856.218 1876.97L810.748 1876.97L810.748 1981.97L808.77 1981.97L808.77 2051.97L820.359 2051.97L820.359 2097.97L840.171 2097.97ZM880.792 2097.97L880.792 2051.97L897.737 2051.97L897.737 1981.97L868.082 1981.97L868.082 2051.97L860.982 2051.97L860.982 2097.97L880.792 2097.97ZM920.413 2051.97L900.604 2051.97L900.604 2097.97L920.413 2097.97L920.413 2051.97ZM961.035 2097.97L961.035 2051.97L957.047 2051.97L957.047 1981.97L947.161 1981.97L947.161 1876.97L947.161 1720.92L1022.95 1720.92L1022.95 1484.66L1022.95 1130.28L947.161 1130.28L947.161 598.694L1071.02 598.694L1071.02 512.057L1218.62 512.057L1218.62 425.416L1071.02 425.416L1071.02 295.459L849.611 295.459L849.611 425.416L775.795 425.416L775.795 512.057L628.183 512.057L628.183 598.694L719.806 598.694L719.806 1130.28L871.377 1130.28L871.377 1484.66L921.899 1484.66L921.899 1720.92L871.377 1720.92L871.377 1876.97L901.691 1876.97L901.691 1981.97L927.392 1981.97L927.392 2051.97L941.225 2051.97L941.225 2097.97L961.035 2097.97ZM923.406 598.694L775.795 598.694L775.795 512.057L923.406 512.055L923.406 598.694ZM923.406 512.055L923.406 425.416L1071.02 425.416L1071.02 512.057L923.406 512.055ZM1000.66 2097.97L1000.66 2051.97L1016.36 2051.97L1016.36 1981.97L1038.1 1981.97L1038.1 1876.97L1083.57 1876.97L1083.57 1981.97L1105.32 1981.97L1105.32 2051.97L1101.71 2051.97L1101.71 2097.97L1121.52 2097.97L1121.52 2051.97L1134.98 2051.97L1134.98 1981.97L1129.05 1981.97L1129.05 1876.97L1098.73 1876.97L1098.73 1720.92L1022.95 1720.92L1022.95 1876.97L992.631 1876.97L992.631 1981.97L986.702 1981.97L986.702 2051.97L980.844 2051.97L980.844 2097.97L1000.66 2097.97ZM1041.28 2051.97L1021.47 2051.97L1021.47 2097.97L1041.28 2097.97L1041.28 2051.97ZM1080.9 2097.97L1080.9 2051.97L1075.67 2051.97L1075.67 1981.97L1046.01 1981.97L1046.01 2051.97L1061.09 2051.97L1061.09 2097.97L1080.9 2097.97ZM1161.14 2051.97L1141.33 2051.97L1141.33 2097.97L1161.14 2097.97L1161.14 2051.97ZM1201.76 2097.97L1201.76 2051.97L1194.29 2051.97L1194.29 1981.97L1219.99 1981.97L1219.99 1876.97L1250.3 1876.97L1250.3 1720.92L1225.04 1720.92L1225.04 1484.66L1326.09 1484.66L1326.09 1130.28L1401.87 1130.28L1401.87 598.694L1545.51 598.694L1545.51 512.057L1693.12 512.057L1693.12 425.416L1545.55 425.416L1545.55 295.459L1766.95 295.459L1766.95 165.498L1988.43 165.498L1988.43 295.459L1766.95 295.459L1766.95 425.416L1840.73 425.416L1840.73 512.057L1693.12 512.057L1693.12 598.694L1629.22 598.694L1629.22 1130.28L1629.22 1484.66L1679.75 1484.66L1679.75 1720.92L1629.22 1720.92L1629.22 1876.97L1629.22 1981.97L1639.11 1981.97L1639.11 2051.97L1622.79 2051.97L1622.79 2097.97L1642.6 2097.97L1642.6 2051.97L1663.41 2051.97L1663.41 2097.97L1683.22 2097.97L1683.22 2051.97L1668.77 2051.97L1668.77 1981.97L1674.7 1981.97L1674.7 1876.97L1705.01 1876.97L1705.01 1720.92L1780.79 1720.92L1780.79 1484.66L1780.79 1130.28L1856.58 1130.28L1856.58 598.694L1840.73 598.694L1840.73 512.057L1988.34 512.057L1988.34 425.416L2099.07 425.416L2099.07 295.459L2209.77 295.459L2209.77 165.498L2209.84 165.498L2209.84 -29.4399L2375.9 -29.4399L2375.9 165.498L2430.92 165.498L2430.92 295.459L2209.77 295.459L2209.77 425.416L2135.95 425.416L2135.95 512.057L2283.56 512.057L2283.56 425.416L2430.92 425.416L2430.92 295.459L2652.59 295.459L2652.59 425.416L2905.83 425.416L2905.83 295.459L3127.24 295.459L3127.24 165.498L3348.65 165.498L3348.65 295.459L3127.24 295.459L3127.24 425.416L3201.05 425.416L3201.05 512.057L3348.66 512.057L3348.66 425.416L3348.64 425.416L3348.64 295.459L3570.05 295.459L3570.05 165.498L3403.97 165.498L3403.97 -29.4398L3237.91 -29.4398L3237.91 -203.999L2756.95 -203.999L2756.95 -29.4399L2541.95 -29.4399L2541.95 -203.999L2209.83 -203.999L2209.83 -29.4399L1877.71 -29.4399L1877.71 -203.999L1545.58 -203.999L1545.58 -29.44L1711.65 -29.44L1711.65 165.498L1545.58 165.498L1545.58 -29.44L1181.75 -29.44L1181.75 -203.999L849.628 -203.999L849.628 -29.44L1015.82 -29.44L1015.82 165.498L1071.01 165.498L1071.01 295.459L1292.42 295.459L1292.42 165.498L1545.54 165.498L1545.54 295.459L1292.42 295.459L1292.42 425.416L1292.42 512.057L1218.62 512.057L1218.62 598.694L1174.51 598.694L1174.51 1130.28L1174.51 1484.66L1123.99 1484.66L1123.99 1720.92L1174.51 1720.92L1174.51 1876.97L1174.51 1981.97L1164.62 1981.97L1164.62 2051.97L1181.95 2051.97L1181.95 2097.97L1201.76 2097.97L1201.76 2097.97ZM1397.9 425.416L1545.51 425.416L1545.51 512.055L1397.9 512.055L1397.9 425.416ZM2756.61 295.459L2756.61 165.498L2756.96 165.498L2756.96 -29.4399L3071.86 -29.4398L3071.86 165.498L2905.83 165.498L2905.83 295.459L2756.61 295.459ZM1241.39 2097.97L1241.39 2051.97L1253.6 2051.97L1253.6 1981.97L1223.94 1981.97L1223.94 2051.97L1221.57 2051.97L1221.57 2097.97L1241.39 2097.97ZM1282.01 2051.97L1262.2 2051.97L1262.2 2097.97L1282.01 2097.97L1282.01 2051.97ZM1321.63 2097.97L1321.63 2051.97L1312.9 2051.97L1312.9 1981.97L1310.93 1981.97L1310.93 1876.97L1265.46 1876.97L1265.46 1981.97L1283.25 1981.97L1283.25 2051.97L1301.82 2051.97L1301.82 2097.97L1321.63 2097.97ZM1362.25 2097.97L1362.25 2051.97L1372.21 2051.97L1372.21 1981.97L1401.87 1981.97L1401.87 1876.97L1401.87 1720.92L1401.87 1484.66L1326.09 1484.66L1326.09 1720.92L1326.09 1876.97L1356.4 1876.97L1356.4 1981.97L1342.56 1981.97L1342.56 2051.97L1342.44 2051.97L1342.44 2097.97L1362.25 2097.97ZM1401.87 2097.97L1401.87 2051.97L1422.68 2051.97L1422.68 2097.97L1442.49 2097.97L1442.49 2051.97L1431.53 2051.97L1431.53 1981.97L1401.87 1981.97L1401.87 2051.97L1382.06 2051.97L1382.06 2097.97L1401.87 2097.97ZM1482.11 2097.97L1482.11 2051.97L1490.84 2051.97L1490.84 1981.97L1492.81 1981.97L1492.81 1876.97L1538.28 1876.97L1538.28 1981.97L1520.49 1981.97L1520.49 2051.97L1502.93 2051.97L1502.93 2097.97L1522.74 2097.97L1522.74 2051.97L1542.55 2051.97L1542.55 2097.97L1562.36 2097.97L1562.36 2051.97L1550.14 2051.97L1550.14 1981.97L1579.8 1981.97L1579.8 2051.97L1583.17 2051.97L1583.17 2097.97L1602.98 2097.97L1602.98 2051.97L1609.45 2051.97L1609.45 1981.97L1583.75 1981.97L1583.75 1876.97L1553.44 1876.97L1553.44 1720.92L1578.7 1720.92L1578.7 1484.66L1477.66 1484.66L1477.66 1720.92L1477.66 1876.97L1447.34 1876.97L1447.34 1981.97L1461.18 1981.97L1461.18 2051.97L1462.3 2051.97L1462.3 2097.97L1482.11 2097.97ZM1722.84 2097.97L1722.84 2051.97L1728.07 2051.97L1728.07 1981.97L1757.73 1981.97L1757.73 2051.97L1743.65 2051.97L1743.65 2097.97L1763.46 2097.97L1763.46 2051.97L1783.27 2051.97L1783.27 2097.97L1803.08 2097.97L1803.08 2051.97L1787.38 2051.97L1787.38 1981.97L1765.64 1981.97L1765.64 1876.97L1720.17 1876.97L1720.17 1981.97L1698.42 1981.97L1698.42 2051.97L1703.03 2051.97L1703.03 2097.97L1722.84 2097.97ZM1843.71 2097.97L1843.71 2051.97L1846.69 2051.97L1846.69 1981.97L1856.58 1981.97L1856.58 1876.97L1856.58 1720.92L1780.79 1720.92L1780.79 1876.97L1811.11 1876.97L1811.11 1981.97L1817.04 1981.97L1817.04 2051.97L1823.9 2051.97L1823.9 2097.97L1843.71 2097.97ZM1883.33 2097.97L1883.33 2051.97L1904.14 2051.97L1904.14 2097.97L1923.95 2097.97L1923.95 2051.97L1906 2051.97L1906 1981.97L1935.66 1981.97L1935.66 2051.97L1943.76 2051.97L1943.76 2097.97L1963.57 2097.97L1963.57 2051.97L1965.32 2051.97L1965.32 1981.97L1947.52 1981.97L1947.52 1876.97L1992.99 1876.97L1992.99 1981.97L1994.97 1981.97L1994.97 2051.97L1984.38 2051.97L1984.38 2097.97L2004.19 2097.97L2004.19 2051.97L2024 2051.97L2024 2097.97L2043.81 2097.97L2043.81 2051.97L2024.62 2051.97L2024.62 1981.97L2038.46 1981.97L2038.46 1876.97L2008.15 1876.97L2008.15 1720.92L1982.89 1720.92L1982.89 1484.66L2083.93 1484.66L2083.93 1130.28L1932.36 1130.28L1932.36 1484.66L1881.84 1484.66L1881.84 1720.92L1932.36 1720.92L1932.36 1876.97L1902.05 1876.97L1902.05 1981.97L1876.35 1981.97L1876.35 2051.97L1863.52 2051.97L1863.52 2097.97L1883.33 2097.97ZM2084.43 2097.97L2084.43 2051.97L2083.93 2051.97L2083.93 1981.97L2113.59 1981.97L2113.59 2051.97L2104.24 2051.97L2104.24 2097.97L2124.06 2097.97L2124.06 2051.97L2143.24 2051.97L2143.24 1981.97L2129.41 1981.97L2129.41 1876.97L2159.72 1876.97L2159.72 1720.92L2184.98 1720.92L2184.98 1484.66L2083.93 1484.66L2083.93 1720.92L2083.93 1876.97L2083.93 1981.97L2054.28 1981.97L2054.28 2051.97L2064.62 2051.97L2064.62 2097.97L2084.43 2097.97ZM2164.68 2051.97L2144.87 2051.97L2144.87 2097.97L2164.68 2097.97L2164.68 2051.97ZM2204.3 2097.97L2204.3 2051.97L2202.55 2051.97L2202.55 1981.97L2220.35 1981.97L2220.35 1876.97L2174.88 1876.97L2174.88 1981.97L2172.9 1981.97L2172.9 2051.97L2184.49 2051.97L2184.49 2097.97L2204.3 2097.97ZM2244.92 2097.97L2244.92 2051.97L2261.86 2051.97L2261.86 1981.97L2232.21 1981.97L2232.21 2051.97L2225.11 2051.97L2225.11 2097.97L2244.92 2097.97ZM2284.54 2051.97L2264.73 2051.97L2264.73 2097.97L2284.54 2097.97L2284.54 2051.97ZM2325.16 2097.97L2325.16 2051.97L2321.17 2051.97L2321.17 1981.97L2311.29 1981.97L2311.29 1876.97L2311.29 1720.92L2387.07 1720.92L2387.07 1484.66L2387.07 1130.28L2311.29 1130.28L2311.29 598.694L2431.18 598.694L2431.18 512.057L2578.79 512.057L2578.79 425.416L2431.18 425.416L2431.18 512.057L2283.56 512.057L2283.56 598.694L2135.95 598.694L2135.95 512.057L1988.34 512.057L1988.34 598.694L2083.93 598.694L2083.93 1130.28L2235.5 1130.28L2235.5 1484.66L2286.03 1484.66L2286.03 1720.92L2235.5 1720.92L2235.5 1876.97L2265.82 1876.97L2265.82 1981.97L2291.52 1981.97L2291.52 2051.97L2305.35 2051.97L2305.35 2097.97L2325.16 2097.97ZM2364.79 2097.97L2364.79 2051.97L2380.48 2051.97L2380.48 1981.97L2402.23 1981.97L2402.23 1876.97L2447.7 1876.97L2447.7 1981.97L2469.45 1981.97L2469.45 2051.97L2465.84 2051.97L2465.84 2097.97L2485.65 2097.97L2485.65 2051.97L2499.1 2051.97L2499.1 1981.97L2493.17 1981.97L2493.17 1876.97L2462.86 1876.97L2462.86 1720.92L2387.07 1720.92L2387.07 1876.97L2356.76 1876.97L2356.76 1981.97L2350.83 1981.97L2350.83 2051.97L2344.97 2051.97L2344.97 2097.97L2364.79 2097.97ZM2405.4 2051.97L2385.6 2051.97L2385.6 2097.97L2405.4 2097.97L2405.4 2051.97ZM2445.03 2097.97L2445.03 2051.97L2439.79 2051.97L2439.79 1981.97L2410.14 1981.97L2410.14 2051.97L2425.22 2051.97L2425.22 2097.97L2445.03 2097.97ZM2525.27 2051.97L2505.46 2051.97L2505.46 2097.97L2525.27 2097.97L2525.27 2051.97ZM2565.89 2097.97L2565.89 2051.97L2558.41 2051.97L2558.41 1981.97L2584.11 1981.97L2584.11 1876.97L2614.43 1876.97L2614.43 1720.92L2589.17 1720.92L2589.17 1484.66L2690.21 1484.66L2690.21 1130.28L2766 1130.28L2766 598.694L2905.83 598.694L2905.83 512.057L2578.79 512.057L2578.79 598.694L2538.64 598.694L2538.64 1130.28L2538.64 1484.66L2488.12 1484.66L2488.12 1720.92L2538.64 1720.92L2538.64 1876.97L2538.64 1981.97L2528.76 1981.97L2528.76 2051.97L2546.08 2051.97L2546.08 2097.97L2565.89 2097.97ZM2605.51 2097.97L2605.51 2051.97L2617.72 2051.97L2617.72 1981.97L2588.07 1981.97L2588.07 2051.97L2585.7 2051.97L2585.7 2097.97L2605.51 2097.97ZM2646.14 2051.97L2626.32 2051.97L2626.32 2097.97L2646.14 2097.97L2646.14 2051.97ZM2685.75 2097.97L2685.75 2051.97L2677.03 2051.97L2677.03 1981.97L2675.05 1981.97L2675.05 1876.97L2629.59 1876.97L2629.59 1981.97L2647.38 1981.97L2647.38 2051.97L2665.94 2051.97L2665.94 2097.97L2685.75 2097.97ZM2726.38 2097.97L2726.38 2051.97L2736.34 2051.97L2736.34 1981.97L2766 1981.97L2766 1876.97L2766 1720.92L2766 1484.66L2841.78 1484.66L2841.78 1130.28L2766 1130.28L2766 1484.66L2690.21 1484.66L2690.21 1720.92L2690.21 1876.97L2720.53 1876.97L2720.53 1981.97L2706.69 1981.97L2706.69 2051.97L2706.57 2051.97L2706.57 2097.97L2726.38 2097.97ZM2766 2097.97L2766 2051.97L2786.81 2051.97L2786.81 2097.97L2806.62 2097.97L2806.62 2051.97L2795.65 2051.97L2795.65 1981.97L2766 1981.97L2766 2051.97L2746.19 2051.97L2746.19 2097.97L2766 2097.97ZM2846.24 2097.97L2846.24 2051.97L2854.96 2051.97L2854.96 1981.97L2856.94 1981.97L2856.94 1876.97L2902.41 1876.97L2902.41 1981.97L2884.62 1981.97L2884.62 2051.97L2867.05 2051.97L2867.05 2097.97L2886.86 2097.97L2886.86 2051.97L2906.67 2051.97L2906.67 2097.97L2926.48 2097.97L2926.48 2051.97L2914.27 2051.97L2914.27 1981.97L2943.93 1981.97L2943.93 2051.97L2947.3 2051.97L2947.3 2097.97L2967.11 2097.97L2967.11 2051.97L2973.58 2051.97L2973.58 1981.97L2947.88 1981.97L2947.88 1876.97L2917.57 1876.97L2917.57 1720.92L2942.83 1720.92L2942.83 1484.66L2841.78 1484.66L2841.78 1720.92L2841.78 1876.97L2811.47 1876.97L2811.47 1981.97L2825.31 1981.97L2825.31 2051.97L2826.43 2051.97L2826.43 2097.97L2846.24 2097.97ZM3006.73 2097.97L3006.73 2051.97L3027.54 2051.97L3027.54 2097.97L3047.35 2097.97L3047.35 2051.97L3032.89 2051.97L3032.89 1981.97L3038.82 1981.97L3038.82 1876.97L3069.14 1876.97L3069.14 1720.92L3144.92 1720.92L3144.92 1484.66L3144.92 1130.28L3220.71 1130.28L3220.71 598.694L3201.05 598.694L3201.05 512.057L3053.44 512.057L3053.44 598.694L2993.35 598.694L2993.35 1130.28L2993.35 1484.66L3043.88 1484.66L3043.88 1720.92L2993.35 1720.92L2993.35 1876.97L2993.35 1981.97L3003.24 1981.97L3003.24 2051.97L2986.92 2051.97L2986.92 2097.97L3006.73 2097.97ZM3086.97 2097.97L3086.97 2051.97L3092.2 2051.97L3092.2 1981.97L3121.86 1981.97L3121.86 2051.97L3107.78 2051.97L3107.78 2097.97L3127.59 2097.97L3127.59 2051.97L3147.4 2051.97L3147.4 2097.97L3167.21 2097.97L3167.21 2051.97L3151.51 2051.97L3151.51 1981.97L3129.77 1981.97L3129.77 1876.97L3084.3 1876.97L3084.29 1981.97L3062.55 1981.97L3062.55 2051.97L3067.16 2051.97L3067.16 2097.97L3086.97 2097.97ZM3207.83 2097.97L3207.83 2051.97L3210.82 2051.97L3210.82 1981.97L3220.71 1981.97L3220.71 1876.97L3220.71 1720.92L3144.92 1720.92L3144.92 1876.97L3175.24 1876.97L3175.24 1981.97L3181.17 1981.97L3181.17 2051.97L3188.02 2051.97L3188.02 2097.97L3207.83 2097.97ZM3247.45 2097.97L3247.45 2051.97L3268.27 2051.97L3268.27 2097.97L3288.08 2097.97L3288.08 2051.97L3270.13 2051.97L3270.13 1981.97L3299.79 1981.97L3299.79 2051.97L3307.89 2051.97L3307.89 2097.97L3327.7 2097.97L3327.7 2051.97L3329.44 2051.97L3329.44 1981.97L3311.65 1981.97L3311.65 1876.97L3357.12 1876.97L3357.12 1981.97L3359.1 1981.97L3359.1 2051.97L3348.51 2051.97L3348.51 2097.97L3368.32 2097.97L3368.32 2051.97L3388.13 2051.97L3388.13 2097.97L3407.94 2097.97L3407.94 2051.97L3388.75 2051.97L3388.75 1981.97L3402.59 1981.97L3402.59 1876.97L3372.28 1876.97L3372.28 1720.92L3347.02 1720.92L3347.02 1484.66L3448.06 1484.66L3448.06 1130.28L3296.49 1130.28L3296.49 1484.66L3245.97 1484.66L3245.97 1720.92L3296.49 1720.92L3296.49 1876.97L3266.18 1876.97L3266.18 1981.97L3240.48 1981.97L3240.48 2051.97L3227.64 2051.97L3227.64 2097.97L3247.45 2097.97ZM3448.56 2097.97L3448.56 2051.97L3448.06 2051.97L3448.06 1981.97L3477.72 1981.97L3477.72 2051.97L3468.37 2051.97L3468.37 2097.97L3488.18 2097.97L3488.18 2051.97L3507.37 2051.97L3507.37 1981.97L3493.53 1981.97L3493.53 1876.97L3523.85 1876.97L3523.85 1720.92L3549.11 1720.92L3549.11 1484.66L3448.06 1484.66L3448.06 1720.92L3448.06 1876.97L3448.06 1981.97L3418.41 1981.97L3418.41 2051.97L3428.75 2051.97L3428.75 2097.97L3448.56 2097.97ZM3528.8 2051.97L3508.99 2051.97L3508.99 2097.97L3528.8 2097.97L3528.8 2051.97ZM3568.43 2097.97L3568.43 2051.97L3566.68 2051.97L3566.68 1981.97L3584.48 1981.97L3584.48 1876.97L3539 1876.97L3539 1981.97L3537.03 1981.97L3537.03 2051.97L3548.61 2051.97L3548.61 2097.97L3568.43 2097.97ZM3609.05 2097.97L3609.05 2051.97L3625.99 2051.97L3625.99 1981.97L3596.34 1981.97L3596.34 2051.97L3589.24 2051.97L3589.24 2097.97L3609.05 2097.97ZM3648.67 2051.97L3628.86 2051.97L3628.86 2097.97L3648.67 2097.97L3648.67 2051.97ZM3689.29 2097.97L3689.29 2051.97L3685.3 2051.97L3685.3 1981.97L3675.42 1981.97L3675.42 1876.97L3675.42 1720.92L3751.2 1720.92L3751.2 1484.66L3751.2 1130.28L3675.42 1130.28L3675.42 598.694L3791.49 598.694L3791.49 512.057L3939.1 512.057L3939.1 425.416L3791.49 425.416L3791.49 512.057L3643.88 512.057L3643.88 598.694L3496.27 598.694L3496.27 512.057L3643.88 512.057L3643.88 425.416L3791.49 425.416L3791.49 295.459L3570.06 295.459L3570.06 425.416L3496.27 425.416L3496.27 512.057L3348.66 512.057L3348.66 598.694L3448.06 598.694L3448.06 1130.28L3599.63 1130.28L3599.63 1484.66L3650.15 1484.66L3650.15 1720.92L3599.63 1720.92L3599.63 1876.97L3629.95 1876.97L3629.95 1981.97L3655.65 1981.97L3655.65 2051.97L3669.48 2051.97L3669.48 2097.97L3689.29 2097.97ZM3728.91 2097.97L3728.91 2051.97L3744.61 2051.97L3744.61 1981.97L3766.36 1981.97L3766.36 1876.97L3811.83 1876.97L3811.83 1981.97L3833.58 1981.97L3833.58 2051.97L3829.97 2051.97L3829.97 2097.97L3849.78 2097.97L3849.78 2051.97L3863.23 2051.97L3863.23 1981.97L3857.3 1981.97L3857.3 1876.97L3826.99 1876.97L3826.99 1720.92L3751.2 1720.92L3751.2 1876.97L3720.89 1876.97L3720.89 1981.97L3714.96 1981.97L3714.96 2051.97L3709.1 2051.97L3709.1 2097.97L3728.91 2097.97ZM3769.53 2051.97L3749.72 2051.97L3749.72 2097.97L3769.53 2097.97L3769.53 2051.97ZM3809.15 2097.97L3809.15 2051.97L3803.92 2051.97L3803.92 1981.97L3774.27 1981.97L3774.27 2051.97L3789.34 2051.97L3789.34 2097.97L3809.15 2097.97ZM3889.4 2051.97L3869.59 2051.97L3869.59 2097.97L3889.4 2097.97L3889.4 2051.97ZM3930.02 2097.97L3930.02 2051.97L3922.54 2051.97L3922.54 1981.97L3948.24 1981.97L3948.24 1876.97L3978.56 1876.97L3978.56 1720.92L3953.3 1720.92L3953.3 1484.66L4054.34 1484.66L4054.34 1130.28L4130.12 1130.28L4130.12 598.694L4086.71 598.694L4086.71 512.057L4130.12 512.057L4130.12 425.416L4130.12 295.459L4012.88 295.459L4012.88 425.416L4086.71 425.416L4086.71 512.057L3939.1 512.057L3939.1 598.694L3902.77 598.694L3902.77 1130.28L3902.77 1484.66L3852.25 1484.66L3852.25 1720.92L3902.77 1720.92L3902.77 1876.97L3902.77 1981.97L3892.89 1981.97L3892.89 2051.97L3910.21 2051.97L3910.21 2097.97L3930.02 2097.97ZM3969.64 2097.97L3969.64 2051.97L3981.85 2051.97L3981.85 1981.97L3952.2 1981.97L3952.2 2051.97L3949.83 2051.97L3949.83 2097.97L3969.64 2097.97ZM4010.26 2051.97L3990.45 2051.97L3990.45 2097.97L4010.26 2097.97L4010.26 2051.97ZM4049.88 2097.97L4049.88 2051.97L4041.16 2051.97L4041.16 1981.97L4039.18 1981.97L4039.18 1876.97L3993.71 1876.97L3993.71 1981.97L4011.51 1981.97L4011.51 2051.97L4030.07 2051.97L4030.07 2097.97L4049.88 2097.97ZM4090.51 2097.97L4090.51 2051.97L4100.47 2051.97L4100.47 1981.97L4130.12 1981.97L4130.12 1876.97L4130.12 1720.92L4130.12 1484.66L4054.34 1484.66L4054.34 1720.92L4054.34 1876.97L4084.65 1876.97L4084.65 1981.97L4070.81 1981.97L4070.81 2051.97L4070.69 2051.97L4070.69 2097.97L4090.51 2097.97ZM4130.12 2051.97L4110.31 2051.97L4110.31 2097.97L4130.12 2097.97L4130.12 2051.97ZM113.528 1130.28L37.744 1130.28L37.744 1484.66L113.528 1484.66L113.528 1130.28ZM1477.66 1130.28L1401.87 1130.28L1401.87 1484.66L1477.66 1484.66L1477.66 1130.28ZM185.353 598.694L185.353 512.057L332.963 512.057L332.963 425.416L185.385 425.416L185.385 295.459L37.7441 295.459L37.7441 425.416L185.353 425.416L185.353 512.057L37.7441 512.057L37.744 598.694L185.353 598.694ZM3053.44 425.416L2905.83 425.416L2905.83 512.057L3053.44 512.057L3053.44 425.416ZM4012.88 295.459L4012.88 165.498L4130.12 165.498L4130.12 -29.4397L4130.12 -203.999L4068.22 -203.999L4068.22 -29.4398L3902.16 -29.4398L3902.16 -203.999L3570.04 -203.999L3570.04 -29.4398L3736.1 -29.4398L3736.1 165.498L3791.49 165.498L3791.49 295.459L4012.88 295.459Z" fill="white"/>
</g>
<defs>
<clipPath id="clip0_8_299">
<rect width="2560" height="285" fill="white"/>
</clipPath>
</defs>
</svg>
